# xmcd
#
# Track frame offsets:
#       150
#       15210
#       27219
#       42658
#       59355
#       73966
#       89459
#       105359
#       118211
#       132055
#       144508
#       159593
#       172139
#       190683
#
# Disc length: 2743 seconds
#
# Revision: 0
# Processed by: cddbd v1.5.2PL0 Copyright (c) Steve Scherf et al.
# Submitted via: WhereIsIt 2010.1026
#
DISCID=c00ab50e
DTITLE=Various Artist - Mr Music Country 2009 10
DYEAR=1900
DGENRE=
TTITLE0=Steff Nevers  -  One Beer A Day
TTITLE1=Dale Watson  -  No Help Wanted
TTITLE2=Heather Myles  -  Mama's A Star
TTITLE3=Sonny Burgess  -  Cowboy Cool
TTITLE4=Rip Masters - Abandoned Mine
TTITLE5=Ralph Pierce  -  Ready For A Heartache
TTITLE6=Rustie Blue  -  Born Again Country
TTITLE7=Zona Jones  -  Blame It On Mexico
TTITLE8=Annie Harrison  -  Cheap Lies And Phoney Alabies
TTITLE9=Art Carter  -  Southside Of My Heart
TTITLE10=Johnny Rodriguez and Johnny Bush  -  Old Wore Out Cowboys
TTITLE11=Kentucky  -  No More Lonely
TTITLE12=Durwood Haddock  -  Honky Tonk Crazy (& Bar Hoppin' Mad)
TTITLE13=Elizabeth Cook  -  Rest Your Weary Mind
EXTD=
EXTT0=
EXTT1=
EXTT2=
EXTT3=
EXTT4=
EXTT5=
EXTT6=
EXTT7=
EXTT8=
EXTT9=
EXTT10=
EXTT11=
EXTT12=
EXTT13=
PLAYORDER=
